<svg xmlns="http://www.w3.org/2000/svg" xmlns:xlink="http://www.w3.org/1999/xlink" width="100%" zoomAndPan="magnify" viewBox="0 0 595.5 297.749993" height="100%" preserveAspectRatio="xMidYMid slice" version="1.0"><defs><filter x="0%" y="0%" width="100%" height="100%" id="9743606355"><feColorMatrix values="0 0 0 0 1 0 0 0 0 1 0 0 0 0 1 0 0 0 1 0" color-interpolation-filters="sRGB"/></filter><filter x="0%" y="0%" width="100%" height="100%" id="2d4c96dc09"><feColorMatrix values="0 0 0 0 1 0 0 0 0 1 0 0 0 0 1 0.2126 0.7152 0.0722 0 0" color-interpolation-filters="sRGB"/></filter><clipPath id="e6ab283c27"><path d="M 0 0 L 595 0 L 595 297.5 L 0 297.5 Z M 0 0 " clip-rule="nonzero"/></clipPath><mask id="d93ec73587"><g filter="url(#9743606355)"><rect x="-59.55" width="714.6" fill="#000000" y="-29.774999" height="357.299992" fill-opacity="0.4"/></g></mask><clipPath id="cb645bb222"><path d="M 297.386719 0 L 594.886719 0 L 594.886719 297.5 L 297.386719 297.5 Z M 297.386719 0 " clip-rule="nonzero"/></clipPath><mask id="7b64c7554a"><g filter="url(#9743606355)"><g filter="url(#2d4c96dc09)" transform="matrix(0.118953, 0, 0, 0.118953, 297.388084, 0)"><image x="0" y="0" width="2501" xlink:href="/assets/bg-images/bg-01.webp" height="2501" preserveAspectRatio="xMidYMid meet"/></g></g></mask><clipPath id="fa585d21b3"><path d="M 0 0 L 297.5 0 L 297.5 297.5 L 0 297.5 Z M 0 0 " clip-rule="nonzero"/></clipPath><mask id="e1714688fb"><g filter="url(#9743606355)"><g filter="url(#2d4c96dc09)" transform="matrix(0.118953, 0, 0, 0.118953, 0.000007, 0)"><image x="0" y="0" width="2501" xlink:href="/assets/bg-images/bg-02.webp" height="2501" preserveAspectRatio="xMidYMid meet"/></g></g></mask><clipPath id="c7146e1b4e"><rect x="0" width="595" y="0" height="298"/></clipPath></defs><g clip-path="url(#e6ab283c27)"><g mask="url(#d93ec73587)"><g transform="matrix(1, 0, 0, 1, 0, 0)"><g clip-path="url(#c7146e1b4e)"><g clip-path="url(#cb645bb222)"><g mask="url(#7b64c7554a)"><g transform="matrix(0.118953, 0, 0, 0.118953, 297.388084, 0)"><image x="0" y="0" width="2501" xlink:href="/assets/bg-images/bg-03.webp" height="2501" preserveAspectRatio="xMidYMid meet"/></g></g></g><g clip-path="url(#fa585d21b3)"><g mask="url(#e1714688fb)"><g transform="matrix(0.118953, 0, 0, 0.118953, 0.000007, 0)"><image x="0" y="0" width="2501" xlink:href="/assets/bg-images/bg-04.webp" height="2501" preserveAspectRatio="xMidYMid meet"/></g></g></g></g></g></g></g></svg>